ffmpeg started on 2026-04-02 at 13:16:04
Report written to "D:\Convert\FFMetrics\reports\psnr_report-6.txt"
Log level: 32
Command line:
ffmpeg -hide_banner -nostdin -r 24/1 -i "F:\\Convert\\files\\Dungeon_ni_Deai_wo_Motomeru_no_wa_Machigatteiru_no_Darou_ka_V_[01]_[AniLibria]_[WEBRip_1080p]_HEVC(307).mkv" -r 24/1 -i "F:\\Convert\\files\\Dungeon_ni_Deai_wo_Motomeru_no_wa_Machigatteiru_no_Darou_ka_V_[01]_[AniLibria]_[WEBRip_1080p].mkv" -lavfi "[0:v]settb=AVTB,setpts=PTS-STARTPTS,format=pix_fmts=yuv420p10le,fps=24/1,scale=1920:1080:flags=lanczos:param0=3:out_range=limited:out_chroma_loc=left,setsar=1/1,setdar=(1920/1080)*(1/1)[main];[1:v]settb=AVTB,setpts=PTS-STARTPTS,format=pix_fmts=yuv420p,fps=24/1,scale=1920:1080:flags=lanczos:param0=3:out_range=limited:out_chroma_loc=left,setsar=1/1,setdar=(1920/1080)*(1/1)[ref];[main][ref]psnr=eof_action=endall:stats_file='D\\:/Convert/FFMetrics/logs/psnr_logfile-6.txt'" -f null -
Input #0, matroska,webm, from 'F:\Convert\files\Dungeon_ni_Deai_wo_Motomeru_no_wa_Machigatteiru_no_Darou_ka_V_[01]_[AniLibria]_[WEBRip_1080p]_HEVC(307).mkv':
  Metadata:
    ENCODER         : Lavf61.7.100
  Duration: 00:23:42.42, start: -0.021000, bitrate: 955 kb/s
  Stream #0:0(jpn): Video: hevc (Main 10), yuv420p10le(tv, progressive), 1920x1080 [SAR 1:1 DAR 16:9], 24 fps, 24 tbr, 1k tbn (default) (forced)
      Metadata:
        ENCODER         : Lavc61.19.100 libx265
        BPS             : 708347
        DURATION        : 00:23:42.416666666
        NUMBER_OF_FRAMES: 34138
        NUMBER_OF_BYTES : 125945672
        _STATISTICS_WRITING_APP: mkvpropedit v94.0 ('Initiate') 64-bit
        _STATISTICS_WRITING_DATE_UTC: 2026-04-02 09:35:41
        _STATISTICS_TAGS: BPS DURATION NUMBER_OF_FRAMES NUMBER_OF_BYTES
  Stream #0:1(rus): Audio: aac (LC), 48000 Hz, stereo, fltp (default) (forced)
      Metadata:
        title           : AniLibria
        ENCODER         : Lavc61.19.100 aac
        BPS             : 194199
        DURATION        : 00:23:42.399000000
        NUMBER_OF_FRAMES: 66676
        NUMBER_OF_BYTES : 34528622
        _STATISTICS_WRITING_APP: mkvpropedit v94.0 ('Initiate') 64-bit
        _STATISTICS_WRITING_DATE_UTC: 2026-04-02 09:35:41
        _STATISTICS_TAGS: BPS DURATION NUMBER_OF_FRAMES NUMBER_OF_BYTES
  Stream #0:2(rus): Subtitle: ass (ssa) (default) (forced)
      Metadata:
        title           : Надписи
        BPS             : 142
        DURATION        : 00:22:42.440000000
        NUMBER_OF_FRAMES: 88
        NUMBER_OF_BYTES : 24274
        _STATISTICS_WRITING_APP: mkvpropedit v94.0 ('Initiate') 64-bit
        _STATISTICS_WRITING_DATE_UTC: 2026-04-02 09:35:41
        _STATISTICS_TAGS: BPS DURATION NUMBER_OF_FRAMES NUMBER_OF_BYTES
  Stream #0:3(rus): Subtitle: ass (ssa)
      Metadata:
        title           : Полные
        BPS             : 303
        DURATION        : 00:23:34.040000000
        NUMBER_OF_FRAMES: 463
        NUMBER_OF_BYTES : 53572
        _STATISTICS_WRITING_APP: mkvpropedit v94.0 ('Initiate') 64-bit
        _STATISTICS_WRITING_DATE_UTC: 2026-04-02 09:35:41
        _STATISTICS_TAGS: BPS DURATION NUMBER_OF_FRAMES NUMBER_OF_BYTES
  Stream #0:4: Attachment: ttf
      Metadata:
        filename        : 10352_0.TTF
        mimetype        : application/x-truetype-font
  Stream #0:5: Attachment: ttf
      Metadata:
        filename        : ARIAL.TTF
        mimetype        : application/x-truetype-font
  Stream #0:6: Attachment: ttf
      Metadata:
        filename        : ARIAL_4.TTF
        mimetype        : application/x-truetype-font
  Stream #0:7: Attachment: ttf
      Metadata:
        filename        : ARIALBD.TTF
        mimetype        : application/x-truetype-font
  Stream #0:8: Attachment: ttf
      Metadata:
        filename        : ARIALBD_0.TTF
        mimetype        : application/x-truetype-font
  Stream #0:9: Attachment: ttf
      Metadata:
        filename        : ARIALBI.TTF
        mimetype        : application/x-truetype-font
  Stream #0:10: Attachment: ttf
      Metadata:
        filename        : ARIALBI_0.TTF
        mimetype        : application/x-truetype-font
  Stream #0:11: Attachment: ttf
      Metadata:
        filename        : ARIALI.TTF
        mimetype        : application/x-truetype-font
  Stream #0:12: Attachment: ttf
      Metadata:
        filename        : ARIALI_0.TTF
        mimetype        : application/x-truetype-font
  Stream #0:13: Attachment: ttf
      Metadata:
        filename        : ARIALN.TTF
        mimetype        : application/x-truetype-font
  Stream #0:14: Attachment: ttf
      Metadata:
        filename        : ARIALN_0.TTF
        mimetype        : application/x-truetype-font
  Stream #0:15: Attachment: ttf
      Metadata:
        filename        : ARIALNB.TTF
        mimetype        : application/x-truetype-font
  Stream #0:16: Attachment: ttf
      Metadata:
        filename        : ARIALNBI.TTF
        mimetype        : application/x-truetype-font
  Stream #0:17: Attachment: ttf
      Metadata:
        filename        : ARIALNI.TTF
        mimetype        : application/x-truetype-font
  Stream #0:18: Attachment: ttf
      Metadata:
        filename        : ARIBLK.TTF
        mimetype        : application/x-truetype-font
  Stream #0:19: Attachment: ttf
      Metadata:
        filename        : ARIBLK_0.TTF
        mimetype        : application/x-truetype-font
  Stream #0:20: Attachment: ttf
      Metadata:
        filename        : ARLEKINO.TTF
        mimetype        : application/x-truetype-font
  Stream #0:21: Attachment: ttf
      Metadata:
        filename        : BOOKOS.TTF
        mimetype        : application/x-truetype-font
  Stream #0:22: Attachment: ttf
      Metadata:
        filename        : BOOKOS_0.TTF
        mimetype        : application/x-truetype-font
  Stream #0:23: Attachment: ttf
      Metadata:
        filename        : BOOKOSB.TTF
        mimetype        : application/x-truetype-font
  Stream #0:24: Attachment: ttf
      Metadata:
        filename        : BOOKOSBI.TTF
        mimetype        : application/x-truetype-font
  Stream #0:25: Attachment: ttf
      Metadata:
        filename        : BOOKOSI.TTF
        mimetype        : application/x-truetype-font
  Stream #0:26: Attachment: ttf
      Metadata:
        filename        : Roboto-Medium.ttf
        mimetype        : application/x-truetype-font
Input #1, matroska,webm, from 'F:\Convert\files\Dungeon_ni_Deai_wo_Motomeru_no_wa_Machigatteiru_no_Darou_ka_V_[01]_[AniLibria]_[WEBRip_1080p].mkv':
  Metadata:
    encoder         : libebml v1.3.10 + libmatroska v1.5.2
    creation_time   : 2024-10-04T13:48:57.000000Z
  Duration: 00:23:42.42, start: 0.000000, bitrate: 5386 kb/s
  Stream #1:0(jpn): Video: h264 (High), yuv420p(progressive), 1920x1080 [SAR 1:1 DAR 16:9], 24 fps, 24 tbr, 1k tbn (default) (forced)
      Metadata:
        BPS-eng         : 5014079
        DURATION-eng    : 00:23:42.417000000
        NUMBER_OF_FRAMES-eng: 34138
        NUMBER_OF_BYTES-eng: 891513907
        _STATISTICS_WRITING_APP-eng: mkvmerge v45.0.0 ('Heaven in Pennies') 64-bit
        _STATISTICS_WRITING_DATE_UTC-eng: 2024-10-04 13:48:57
        _STATISTICS_TAGS-eng: BPS DURATION NUMBER_OF_FRAMES NUMBER_OF_BYTES
  Stream #1:1(rus): Audio: aac (LC), 48000 Hz, stereo, fltp (default) (forced)
      Metadata:
        title           : AniLibria
        BPS-eng         : 192088
        DURATION-eng    : 00:23:42.400000000
        NUMBER_OF_FRAMES-eng: 66675
        NUMBER_OF_BYTES-eng: 34153247
        _STATISTICS_WRITING_APP-eng: mkvmerge v45.0.0 ('Heaven in Pennies') 64-bit
        _STATISTICS_WRITING_DATE_UTC-eng: 2024-10-04 13:48:57
        _STATISTICS_TAGS-eng: BPS DURATION NUMBER_OF_FRAMES NUMBER_OF_BYTES
  Stream #1:2(jpn): Audio: aac (LC), 48000 Hz, stereo, fltp
      Metadata:
        title           : Original
        BPS-eng         : 128824
        DURATION-eng    : 00:23:42.421000000
        NUMBER_OF_FRAMES-eng: 66676
        NUMBER_OF_BYTES-eng: 22905301
        _STATISTICS_WRITING_APP-eng: mkvmerge v45.0.0 ('Heaven in Pennies') 64-bit
        _STATISTICS_WRITING_DATE_UTC-eng: 2024-10-04 13:48:57
        _STATISTICS_TAGS-eng: BPS DURATION NUMBER_OF_FRAMES NUMBER_OF_BYTES
  Stream #1:3(rus): Subtitle: ass (ssa) (default) (forced)
      Metadata:
        title           : Надписи
        BPS-eng         : 142
        DURATION-eng    : 00:22:42.440000000
        NUMBER_OF_FRAMES-eng: 88
        NUMBER_OF_BYTES-eng: 24274
        _STATISTICS_WRITING_APP-eng: mkvmerge v45.0.0 ('Heaven in Pennies') 64-bit
        _STATISTICS_WRITING_DATE_UTC-eng: 2024-10-04 13:48:57
        _STATISTICS_TAGS-eng: BPS DURATION NUMBER_OF_FRAMES NUMBER_OF_BYTES
  Stream #1:4(rus): Subtitle: ass (ssa)
      Metadata:
        title           : Полные
        BPS-eng         : 303
        DURATION-eng    : 00:23:34.040000000
        NUMBER_OF_FRAMES-eng: 463
        NUMBER_OF_BYTES-eng: 53572
        _STATISTICS_WRITING_APP-eng: mkvmerge v45.0.0 ('Heaven in Pennies') 64-bit
        _STATISTICS_WRITING_DATE_UTC-eng: 2024-10-04 13:48:57
        _STATISTICS_TAGS-eng: BPS DURATION NUMBER_OF_FRAMES NUMBER_OF_BYTES
  Stream #1:5: Attachment: ttf
      Metadata:
        filename        : 10352_0.TTF
        mimetype        : application/x-truetype-font
  Stream #1:6: Attachment: ttf
      Metadata:
        filename        : ARIAL.TTF
        mimetype        : application/x-truetype-font
  Stream #1:7: Attachment: ttf
      Metadata:
        filename        : ARIAL_4.TTF
        mimetype        : application/x-truetype-font
  Stream #1:8: Attachment: ttf
      Metadata:
        filename        : ARIALBD.TTF
        mimetype        : application/x-truetype-font
  Stream #1:9: Attachment: ttf
      Metadata:
        filename        : ARIALBD_0.TTF
        mimetype        : application/x-truetype-font
  Stream #1:10: Attachment: ttf
      Metadata:
        filename        : ARIALBI.TTF
        mimetype        : application/x-truetype-font
  Stream #1:11: Attachment: ttf
      Metadata:
        filename        : ARIALBI_0.TTF
        mimetype        : application/x-truetype-font
  Stream #1:12: Attachment: ttf
      Metadata:
        filename        : ARIALI.TTF
        mimetype        : application/x-truetype-font
  Stream #1:13: Attachment: ttf
      Metadata:
        filename        : ARIALI_0.TTF
        mimetype        : application/x-truetype-font
  Stream #1:14: Attachment: ttf
      Metadata:
        filename        : ARIALN.TTF
        mimetype        : application/x-truetype-font
  Stream #1:15: Attachment: ttf
      Metadata:
        filename        : ARIALN_0.TTF
        mimetype        : application/x-truetype-font
  Stream #1:16: Attachment: ttf
      Metadata:
        filename        : ARIALNB.TTF
        mimetype        : application/x-truetype-font
  Stream #1:17: Attachment: ttf
      Metadata:
        filename        : ARIALNBI.TTF
        mimetype        : application/x-truetype-font
  Stream #1:18: Attachment: ttf
      Metadata:
        filename        : ARIALNI.TTF
        mimetype        : application/x-truetype-font
  Stream #1:19: Attachment: ttf
      Metadata:
        filename        : ARIBLK.TTF
        mimetype        : application/x-truetype-font
  Stream #1:20: Attachment: ttf
      Metadata:
        filename        : ARIBLK_0.TTF
        mimetype        : application/x-truetype-font
  Stream #1:21: Attachment: ttf
      Metadata:
        filename        : ARLEKINO.TTF
        mimetype        : application/x-truetype-font
  Stream #1:22: Attachment: ttf
      Metadata:
        filename        : BOOKOS.TTF
        mimetype        : application/x-truetype-font
  Stream #1:23: Attachment: ttf
      Metadata:
        filename        : BOOKOS_0.TTF
        mimetype        : application/x-truetype-font
  Stream #1:24: Attachment: ttf
      Metadata:
        filename        : BOOKOSB.TTF
        mimetype        : application/x-truetype-font
  Stream #1:25: Attachment: ttf
      Metadata:
        filename        : BOOKOSBI.TTF
        mimetype        : application/x-truetype-font
  Stream #1:26: Attachment: ttf
      Metadata:
        filename        : BOOKOSI.TTF
        mimetype        : application/x-truetype-font
  Stream #1:27: Attachment: ttf
      Metadata:
        filename        : Roboto-Medium.ttf
        mimetype        : application/x-truetype-font
Stream mapping:
  Stream #0:0 (hevc) -> settb:default
  Stream #1:0 (h264) -> settb:default
  psnr:default -> Stream #0:0 (wrapped_avframe)
  Stream #0:1 -> #0:1 (aac (native) -> pcm_s16le (native))
Output #0, null, to 'pipe:':
  Metadata:
    encoder         : Lavf61.7.100
  Stream #0:0: Video: wrapped_avframe, yuv420p10le(tv, progressive), 1920x1080 [SAR 1:1 DAR 16:9], q=2-31, 200 kb/s, 24 fps, 24 tbn
      Metadata:
        encoder         : Lavc61.19.100 wrapped_avframe
  Stream #0:1(rus): Audio: pcm_s16le, 48000 Hz, stereo, s16, 1536 kb/s (default) (forced)
      Metadata:
        title           : AniLibria
        _STATISTICS_TAGS: BPS DURATION NUMBER_OF_FRAMES NUMBER_OF_BYTES
        BPS             : 194199
        DURATION        : 00:23:42.399000000
        NUMBER_OF_FRAMES: 66676
        NUMBER_OF_BYTES : 34528622
        _STATISTICS_WRITING_APP: mkvpropedit v94.0 ('Initiate') 64-bit
        _STATISTICS_WRITING_DATE_UTC: 2026-04-02 09:35:41
        encoder         : Lavc61.19.100 pcm_s16le
frame=  186 fps=0.0 q=-0.0 size=N/A time=00:00:07.75 bitrate=N/A speed=14.9x    frame=  387 fps=376 q=-0.0 size=N/A time=00:00:16.12 bitrate=N/A speed=15.7x    frame=  581 fps=373 q=-0.0 size=N/A time=00:00:24.20 bitrate=N/A speed=15.5x    frame=  798 fps=385 q=-0.0 size=N/A time=00:00:33.25 bitrate=N/A speed=16.1x    frame= 1023 fps=396 q=-0.0 size=N/A time=00:00:42.62 bitrate=N/A speed=16.5x    frame= 1252 fps=405 q=-0.0 size=N/A time=00:00:52.16 bitrate=N/A speed=16.9x    frame= 1455 fps=402 q=-0.0 size=N/A time=00:01:00.62 bitrate=N/A speed=16.7x    frame= 1642 fps=397 q=-0.0 size=N/A time=00:01:08.41 bitrate=N/A speed=16.6x    frame= 1812 fps=390 q=-0.0 size=N/A time=00:01:15.50 bitrate=N/A speed=16.3x    frame= 1986 fps=384 q=-0.0 size=N/A time=00:01:22.75 bitrate=N/A speed=  16x    frame= 2173 fps=381 q=-0.0 size=N/A time=00:01:30.54 bitrate=N/A speed=15.9x    frame= 2362 fps=380 q=-0.0 size=N/A time=00:01:38.41 bitrate=N/A speed=15.8x    frame= 2551 fps=379 q=-0.0 size=N/A time=00:01:46.29 bitrate=N/A speed=15.8x    frame= 2711 fps=375 q=-0.0 size=N/A time=00:01:52.95 bitrate=N/A speed=15.6x    frame= 2859 fps=368 q=-0.0 size=N/A time=00:01:59.12 bitrate=N/A speed=15.4x    frame= 3042 fps=368 q=-0.0 size=N/A time=00:02:06.75 bitrate=N/A speed=15.3x    frame= 3225 fps=367 q=-0.0 size=N/A time=00:02:14.37 bitrate=N/A speed=15.3x    frame= 3409 fps=367 q=-0.0 size=N/A time=00:02:22.04 bitrate=N/A speed=15.3x    frame= 3637 fps=370 q=-0.0 size=N/A time=00:02:31.54 bitrate=N/A speed=15.4x    frame= 3865 fps=374 q=-0.0 size=N/A time=00:02:41.04 bitrate=N/A speed=15.6x    frame= 4077 fps=376 q=-0.0 size=N/A time=00:02:49.87 bitrate=N/A speed=15.7x    frame= 4310 fps=379 q=-0.0 size=N/A time=00:02:59.58 bitrate=N/A speed=15.8x    frame= 4532 fps=381 q=-0.0 size=N/A time=00:03:08.83 bitrate=N/A speed=15.9x    frame= 4755 fps=383 q=-0.0 size=N/A time=00:03:18.12 bitrate=N/A speed=  16x    frame= 4980 fps=386 q=-0.0 size=N/A time=00:03:27.50 bitrate=N/A speed=16.1x    frame= 5183 fps=386 q=-0.0 size=N/A time=00:03:35.95 bitrate=N/A speed=16.1x    frame= 5413 fps=388 q=-0.0 size=N/A time=00:03:45.54 bitrate=N/A speed=16.2x    frame= 5613 fps=388 q=-0.0 size=N/A time=00:03:53.87 bitrate=N/A speed=16.2x    frame= 5838 fps=390 q=-0.0 size=N/A time=00:04:03.25 bitrate=N/A speed=16.2x    frame= 6058 fps=391 q=-0.0 size=N/A time=00:04:12.41 bitrate=N/A speed=16.3x    frame= 6277 fps=392 q=-0.0 size=N/A time=00:04:21.54 bitrate=N/A speed=16.3x    frame= 6497 fps=393 q=-0.0 size=N/A time=00:04:30.70 bitrate=N/A speed=16.4x    frame= 6715 fps=394 q=-0.0 size=N/A time=00:04:39.79 bitrate=N/A speed=16.4x    frame= 6910 fps=394 q=-0.0 size=N/A time=00:04:47.91 bitrate=N/A speed=16.4x    frame= 7151 fps=396 q=-0.0 size=N/A time=00:04:57.95 bitrate=N/A speed=16.5x    frame= 7376 fps=397 q=-0.0 size=N/A time=00:05:07.33 bitrate=N/A speed=16.5x    frame= 7613 fps=399 q=-0.0 size=N/A time=00:05:17.20 bitrate=N/A speed=16.6x    frame= 7843 fps=400 q=-0.0 size=N/A time=00:05:26.79 bitrate=N/A speed=16.7x    frame= 8088 fps=401 q=-0.0 size=N/A time=00:05:37.00 bitrate=N/A speed=16.7x    frame= 8314 fps=402 q=-0.0 size=N/A time=00:05:46.41 bitrate=N/A speed=16.8x    frame= 8540 fps=403 q=-0.0 size=N/A time=00:05:55.83 bitrate=N/A speed=16.8x    frame= 8764 fps=404 q=-0.0 size=N/A time=00:06:05.16 bitrate=N/A speed=16.8x    frame= 9007 fps=405 q=-0.0 size=N/A time=00:06:15.29 bitrate=N/A speed=16.9x    frame= 9229 fps=406 q=-0.0 size=N/A time=00:06:24.54 bitrate=N/A speed=16.9x    frame= 9445 fps=406 q=-0.0 size=N/A time=00:06:33.54 bitrate=N/A speed=16.9x    frame= 9673 fps=407 q=-0.0 size=N/A time=00:06:43.04 bitrate=N/A speed=  17x    frame= 9885 fps=407 q=-0.0 size=N/A time=00:06:51.87 bitrate=N/A speed=  17x    frame=10124 fps=408 q=-0.0 size=N/A time=00:07:01.83 bitrate=N/A speed=  17x    frame=10365 fps=410 q=-0.0 size=N/A time=00:07:11.87 bitrate=N/A speed=17.1x    frame=10560 fps=409 q=-0.0 size=N/A time=00:07:20.00 bitrate=N/A speed=  17x    frame=10795 fps=410 q=-0.0 size=N/A time=00:07:29.79 bitrate=N/A speed=17.1x    frame=10987 fps=409 q=-0.0 size=N/A time=00:07:37.79 bitrate=N/A speed=17.1x    frame=11211 fps=410 q=-0.0 size=N/A time=00:07:47.12 bitrate=N/A speed=17.1x    frame=11455 fps=411 q=-0.0 size=N/A time=00:07:57.29 bitrate=N/A speed=17.1x    frame=11672 fps=411 q=-0.0 size=N/A time=00:08:06.33 bitrate=N/A speed=17.1x    frame=11909 fps=412 q=-0.0 size=N/A time=00:08:16.20 bitrate=N/A speed=17.2x    frame=12143 fps=413 q=-0.0 size=N/A time=00:08:25.95 bitrate=N/A speed=17.2x    frame=12381 fps=413 q=-0.0 size=N/A time=00:08:35.87 bitrate=N/A speed=17.2x    frame=12621 fps=414 q=-0.0 size=N/A time=00:08:45.87 bitrate=N/A speed=17.3x    frame=12853 fps=415 q=-0.0 size=N/A time=00:08:55.54 bitrate=N/A speed=17.3x    frame=13089 fps=416 q=-0.0 size=N/A time=00:09:05.37 bitrate=N/A speed=17.3x    frame=13328 fps=416 q=-0.0 size=N/A time=00:09:15.33 bitrate=N/A speed=17.3x    frame=13537 fps=416 q=-0.0 size=N/A time=00:09:24.04 bitrate=N/A speed=17.3x    frame=13758 fps=416 q=-0.0 size=N/A time=00:09:33.25 bitrate=N/A speed=17.4x    frame=13967 fps=416 q=-0.0 size=N/A time=00:09:41.95 bitrate=N/A speed=17.3x    frame=14205 fps=417 q=-0.0 size=N/A time=00:09:51.87 bitrate=N/A speed=17.4x    frame=14435 fps=417 q=-0.0 size=N/A time=00:10:01.45 bitrate=N/A speed=17.4x    frame=14656 fps=418 q=-0.0 size=N/A time=00:10:10.66 bitrate=N/A speed=17.4x    frame=14887 fps=418 q=-0.0 size=N/A time=00:10:20.29 bitrate=N/A speed=17.4x    frame=15124 fps=419 q=-0.0 size=N/A time=00:10:30.16 bitrate=N/A speed=17.4x    frame=15362 fps=419 q=-0.0 size=N/A time=00:10:40.08 bitrate=N/A speed=17.5x    frame=15579 fps=419 q=-0.0 size=N/A time=00:10:49.12 bitrate=N/A speed=17.5x    frame=15801 fps=419 q=-0.0 size=N/A time=00:10:58.37 bitrate=N/A speed=17.5x    frame=16047 fps=420 q=-0.0 size=N/A time=00:11:08.62 bitrate=N/A speed=17.5x    frame=16282 fps=421 q=-0.0 size=N/A time=00:11:18.41 bitrate=N/A speed=17.5x    frame=16505 fps=421 q=-0.0 size=N/A time=00:11:27.70 bitrate=N/A speed=17.5x    frame=16740 fps=421 q=-0.0 size=N/A time=00:11:37.50 bitrate=N/A speed=17.6x    frame=16977 fps=422 q=-0.0 size=N/A time=00:11:47.37 bitrate=N/A speed=17.6x    frame=17203 fps=422 q=-0.0 size=N/A time=00:11:56.79 bitrate=N/A speed=17.6x    frame=17426 fps=422 q=-0.0 size=N/A time=00:12:06.08 bitrate=N/A speed=17.6x    frame=17661 fps=423 q=-0.0 size=N/A time=00:12:15.87 bitrate=N/A speed=17.6x    frame=17902 fps=423 q=-0.0 size=N/A time=00:12:25.91 bitrate=N/A speed=17.6x    frame=18120 fps=423 q=-0.0 size=N/A time=00:12:35.00 bitrate=N/A speed=17.6x    frame=18335 fps=423 q=-0.0 size=N/A time=00:12:43.95 bitrate=N/A speed=17.6x    frame=18556 fps=423 q=-0.0 size=N/A time=00:12:53.16 bitrate=N/A speed=17.6x    frame=18782 fps=423 q=-0.0 size=N/A time=00:13:02.58 bitrate=N/A speed=17.6x    frame=19023 fps=424 q=-0.0 size=N/A time=00:13:12.62 bitrate=N/A speed=17.7x    frame=19253 fps=424 q=-0.0 size=N/A time=00:13:22.20 bitrate=N/A speed=17.7x    frame=19481 fps=424 q=-0.0 size=N/A time=00:13:31.70 bitrate=N/A speed=17.7x    frame=19702 fps=424 q=-0.0 size=N/A time=00:13:40.91 bitrate=N/A speed=17.7x    frame=19933 fps=424 q=-0.0 size=N/A time=00:13:50.54 bitrate=N/A speed=17.7x    frame=20178 fps=425 q=-0.0 size=N/A time=00:14:00.75 bitrate=N/A speed=17.7x    frame=20418 fps=425 q=-0.0 size=N/A time=00:14:10.75 bitrate=N/A speed=17.7x    frame=20637 fps=425 q=-0.0 size=N/A time=00:14:19.87 bitrate=N/A speed=17.7x    frame=20867 fps=426 q=-0.0 size=N/A time=00:14:29.45 bitrate=N/A speed=17.7x    frame=21078 fps=426 q=-0.0 size=N/A time=00:14:38.25 bitrate=N/A speed=17.7x    frame=21295 fps=426 q=-0.0 size=N/A time=00:14:47.29 bitrate=N/A speed=17.7x    frame=21526 fps=426 q=-0.0 size=N/A time=00:14:56.91 bitrate=N/A speed=17.7x    frame=21756 fps=426 q=-0.0 size=N/A time=00:15:06.50 bitrate=N/A speed=17.7x    frame=21988 fps=426 q=-0.0 size=N/A time=00:15:16.16 bitrate=N/A speed=17.8x    frame=22219 fps=426 q=-0.0 size=N/A time=00:15:25.79 bitrate=N/A speed=17.8x    frame=22429 fps=426 q=-0.0 size=N/A time=00:15:34.54 bitrate=N/A speed=17.8x    frame=22659 fps=426 q=-0.0 size=N/A time=00:15:44.12 bitrate=N/A speed=17.8x    frame=22893 fps=427 q=-0.0 size=N/A time=00:15:53.87 bitrate=N/A speed=17.8x    frame=23132 fps=427 q=-0.0 size=N/A time=00:16:03.83 bitrate=N/A speed=17.8x    frame=23368 fps=427 q=-0.0 size=N/A time=00:16:13.66 bitrate=N/A speed=17.8x    frame=23581 fps=427 q=-0.0 size=N/A time=00:16:22.54 bitrate=N/A speed=17.8x    frame=23817 fps=427 q=-0.0 size=N/A time=00:16:32.37 bitrate=N/A speed=17.8x    frame=24050 fps=428 q=-0.0 size=N/A time=00:16:42.08 bitrate=N/A speed=17.8x    frame=24265 fps=428 q=-0.0 size=N/A time=00:16:51.04 bitrate=N/A speed=17.8x    frame=24493 fps=428 q=-0.0 size=N/A time=00:17:00.54 bitrate=N/A speed=17.8x    frame=24729 fps=428 q=-0.0 size=N/A time=00:17:10.37 bitrate=N/A speed=17.8x    frame=24972 fps=428 q=-0.0 size=N/A time=00:17:20.50 bitrate=N/A speed=17.8x    frame=25200 fps=428 q=-0.0 size=N/A time=00:17:30.00 bitrate=N/A speed=17.9x    frame=25437 fps=429 q=-0.0 size=N/A time=00:17:39.87 bitrate=N/A speed=17.9x    frame=25657 fps=429 q=-0.0 size=N/A time=00:17:49.04 bitrate=N/A speed=17.9x    frame=25887 fps=429 q=-0.0 size=N/A time=00:17:58.62 bitrate=N/A speed=17.9x    frame=26109 fps=429 q=-0.0 size=N/A time=00:18:07.87 bitrate=N/A speed=17.9x    frame=26324 fps=429 q=-0.0 size=N/A time=00:18:16.83 bitrate=N/A speed=17.9x    frame=26539 fps=429 q=-0.0 size=N/A time=00:18:25.79 bitrate=N/A speed=17.9x    frame=26765 fps=429 q=-0.0 size=N/A time=00:18:35.20 bitrate=N/A speed=17.9x    frame=26960 fps=428 q=-0.0 size=N/A time=00:18:43.33 bitrate=N/A speed=17.8x    frame=27175 fps=428 q=-0.0 size=N/A time=00:18:52.29 bitrate=N/A speed=17.8x    frame=27405 fps=428 q=-0.0 size=N/A time=00:19:01.87 bitrate=N/A speed=17.8x    frame=27622 fps=428 q=-0.0 size=N/A time=00:19:10.91 bitrate=N/A speed=17.8x    frame=27831 fps=428 q=-0.0 size=N/A time=00:19:19.62 bitrate=N/A speed=17.8x    frame=27960 fps=427 q=-0.0 size=N/A time=00:19:25.00 bitrate=N/A speed=17.8x    frame=28158 fps=426 q=-0.0 size=N/A time=00:19:33.25 bitrate=N/A speed=17.8x    frame=28328 fps=426 q=-0.0 size=N/A time=00:19:40.33 bitrate=N/A speed=17.7x    frame=28508 fps=425 q=-0.0 size=N/A time=00:19:47.83 bitrate=N/A speed=17.7x    frame=28702 fps=425 q=-0.0 size=N/A time=00:19:55.91 bitrate=N/A speed=17.7x    frame=28917 fps=424 q=-0.0 size=N/A time=00:20:04.87 bitrate=N/A speed=17.7x    frame=29123 fps=424 q=-0.0 size=N/A time=00:20:13.45 bitrate=N/A speed=17.7x    frame=29337 fps=424 q=-0.0 size=N/A time=00:20:22.37 bitrate=N/A speed=17.7x    frame=29540 fps=424 q=-0.0 size=N/A time=00:20:30.83 bitrate=N/A speed=17.7x    frame=29697 fps=423 q=-0.0 size=N/A time=00:20:37.37 bitrate=N/A speed=17.6x    frame=29855 fps=422 q=-0.0 size=N/A time=00:20:43.95 bitrate=N/A speed=17.6x    frame=30034 fps=422 q=-0.0 size=N/A time=00:20:51.41 bitrate=N/A speed=17.6x    frame=30207 fps=421 q=-0.0 size=N/A time=00:20:58.62 bitrate=N/A speed=17.5x    frame=30395 fps=421 q=-0.0 size=N/A time=00:21:06.45 bitrate=N/A speed=17.5x    frame=30580 fps=420 q=-0.0 size=N/A time=00:21:14.16 bitrate=N/A speed=17.5x    frame=30751 fps=420 q=-0.0 size=N/A time=00:21:21.29 bitrate=N/A speed=17.5x    frame=30934 fps=419 q=-0.0 size=N/A time=00:21:28.91 bitrate=N/A speed=17.5x    frame=31113 fps=419 q=-0.0 size=N/A time=00:21:36.37 bitrate=N/A speed=17.4x    frame=31299 fps=418 q=-0.0 size=N/A time=00:21:44.12 bitrate=N/A speed=17.4x    frame=31491 fps=418 q=-0.0 size=N/A time=00:21:52.12 bitrate=N/A speed=17.4x    frame=31712 fps=418 q=-0.0 size=N/A time=00:22:01.33 bitrate=N/A speed=17.4x    frame=31945 fps=418 q=-0.0 size=N/A time=00:22:11.04 bitrate=N/A speed=17.4x    frame=32162 fps=418 q=-0.0 size=N/A time=00:22:20.08 bitrate=N/A speed=17.4x    frame=32396 fps=419 q=-0.0 size=N/A time=00:22:29.83 bitrate=N/A speed=17.4x    frame=32631 fps=419 q=-0.0 size=N/A time=00:22:39.62 bitrate=N/A speed=17.5x    frame=32877 fps=419 q=-0.0 size=N/A time=00:22:49.87 bitrate=N/A speed=17.5x    frame=33118 fps=420 q=-0.0 size=N/A time=00:22:59.91 bitrate=N/A speed=17.5x    frame=33346 fps=420 q=-0.0 size=N/A time=00:23:09.41 bitrate=N/A speed=17.5x    frame=33582 fps=420 q=-0.0 size=N/A time=00:23:19.25 bitrate=N/A speed=17.5x    frame=33826 fps=420 q=-0.0 size=N/A time=00:23:29.41 bitrate=N/A speed=17.5x    frame=34041 fps=420 q=-0.0 size=N/A time=00:23:38.37 bitrate=N/A speed=17.5x    [Parsed_psnr_14 @ 0000027fbb7dea80] PSNR y:48.284280 u:50.966856 v:51.395316 average:49.052076 min:41.458804 max:inf
[out#0/null @ 0000027fb778cfc0] video:14669KiB audio:266704KiB subtitle:0KiB other streams:0KiB global headers:0KiB muxing overhead: unknown
frame=34138 fps=420 q=-0.0 Lsize=N/A time=00:23:42.41 bitrate=N/A speed=17.5x    
